<svg xmlns="http://www.w3.org/2000/svg" viewBox="0 0 2812.66 708.04">
    <defs>
        <style>.a{fill:#6c7172;}.b{fill:#16aead;}.c{fill:#055c5f;}.d{fill:#b0b0b0;}.e{fill:#16848c;}</style>
    </defs>
    <title>LogoSoftware</title>
    <path class="a" d="M951.51,19h224.37V44H980.26V207.71h165v25h-165V430.84H951.51Z"
          transform="translate(-22 -11.46)"/>
    <path class="a" d="M1335.88,19h28.75V405.84H1554v25H1335.88Z" transform="translate(-22 -11.46)"/>
    <path class="a"
          d="M1904,289.59H1740.87l-48.12,141.25h-29.37L1809,19h28.75l145,411.88h-30.62Zm-8.12-24.37-26.25-76.87q-12.51-36.87-23.75-70.62T1824,45.84h-2.5q-10.63,38.13-21.87,71.88t-23.75,70.63l-26.25,76.88Z"
          transform="translate(-22 -11.46)"/>
    <path class="a"
          d="M2102.12,224q0-48.75,13.13-88.12t37.19-67.19a159.9,159.9,0,0,1,57.81-42.5q33.75-14.68,74.38-14.69a153.52,153.52,0,0,1,37.81,4.38,140.64,140.64,0,0,1,55.31,27.5,194.76,194.76,0,0,1,18.75,17.5l-16.87,18.75a149.8,149.8,0,0,0-38.75-29.69q-22.5-12.19-56.25-12.19-35.62,0-63.75,13.13A134.6,134.6,0,0,0,2173.06,88q-19.69,24.07-30.31,58.44T2132.12,224q0,43.13,10,77.81t29.38,59.06a134,134,0,0,0,47.19,37.81q27.8,13.45,62.81,13.44A164.93,164.93,0,0,0,2334,404q24.38-8.12,39.38-23.12V252.71h-98.12V228.34h125.63V391.46q-19.38,20.63-50.31,33.75T2279,438.34q-39.37,0-72.19-15a156.37,156.37,0,0,1-55.94-42.81q-23.13-27.8-35.94-67.5T2102.12,224Z"
          transform="translate(-22 -11.46)"/>
    <path class="a"
          d="M2579.61,356.46a166.6,166.6,0,0,0,53.75,40.63,153.93,153.93,0,0,0,67.5,15q46.88,0,74.69-22.81t27.81-59.69q0-19.37-5.94-32.5a74,74,0,0,0-15.94-22.81,101.66,101.66,0,0,0-23.75-16.87Q2744,250.22,2729,243.34l-62.5-28.12a308.75,308.75,0,0,1-27.81-13.75,119.82,119.82,0,0,1-26.87-20.31,106.55,106.55,0,0,1-20.31-28.75q-8.13-16.55-8.12-39.69,0-22.5,9.06-40.94a97.69,97.69,0,0,1,25-31.87A116.66,116.66,0,0,1,2655.24,19a145.51,145.51,0,0,1,47.5-7.5q37.5,0,66.88,14.69t48.13,34.69l-16.87,19.38a139.79,139.79,0,0,0-42.5-30.94Q2734,37.72,2702.74,37.71q-41.25,0-65.94,20t-24.69,53.75q0,18.13,6.88,30.63a76.22,76.22,0,0,0,17.5,21.56,124.68,124.68,0,0,0,23.13,15.63q12.5,6.56,23.75,11.56l62.5,27.5a299.9,299.9,0,0,1,32.5,16.88,130.08,130.08,0,0,1,27.5,21.88,97.16,97.16,0,0,1,19.06,29.69q7.18,17.2,7.19,40.94a103.82,103.82,0,0,1-9.37,44.06,101.45,101.45,0,0,1-26.56,35q-17.2,14.69-41.56,23.13t-54.37,8.44q-45,0-79.69-17.19a191.48,191.48,0,0,1-59.06-44.69Z"
          transform="translate(-22 -11.46)"/>
    <polygon class="b" points="397.41 552.54 696.41 552.54 831.72 318.54 532.72 318.54 397.41 552.54"/>
    <polygon class="c" points="615 6.04 316 6.04 179.83 241.54 478.83 241.54 615 6.04"/>
    <polygon class="a" points="723.79 161.54 424.79 161.54 288.62 397.04 587.62 397.04 723.79 161.54"/>
    <polygon class="d" points="108.79 708.04 407.79 708.04 543.1 474.04 244.1 474.04 108.79 708.04"/>
    <polygon class="e" points="0 552.54 299 552.54 434.31 318.54 135.31 318.54 0 552.54"/>
    <path class="a"
          d="M958.24,689.5a61,61,0,0,0,19.69,14.88,56.4,56.4,0,0,0,24.73,5.5q17.17,0,27.37-8.36t10.19-21.87a28.89,28.89,0,0,0-2.18-11.91,27.11,27.11,0,0,0-5.84-8.36,37.24,37.24,0,0,0-8.7-6.18q-5-2.63-10.53-5.15l-22.9-10.3a113.28,113.28,0,0,1-10.19-5,43.91,43.91,0,0,1-9.85-7.44,39.05,39.05,0,0,1-7.44-10.53,32.7,32.7,0,0,1-3-14.54,33.53,33.53,0,0,1,3.32-15,35.78,35.78,0,0,1,9.16-11.68A42.74,42.74,0,0,1,986,565.84a53.32,53.32,0,0,1,17.4-2.75,54.08,54.08,0,0,1,24.5,5.38,61.68,61.68,0,0,1,17.63,12.71l-6.18,7.1a51.22,51.22,0,0,0-15.57-11.34,47,47,0,0,0-20.38-4.24q-15.11,0-24.16,7.33t-9,19.69A23,23,0,0,0,972.67,611a27.94,27.94,0,0,0,6.41,7.9,45.65,45.65,0,0,0,8.47,5.72q4.58,2.41,8.7,4.24l22.9,10.08a109.88,109.88,0,0,1,11.91,6.18,47.61,47.61,0,0,1,10.08,8,35.61,35.61,0,0,1,7,10.88,38.82,38.82,0,0,1,2.63,15,38,38,0,0,1-3.44,16.14,37.18,37.18,0,0,1-9.73,12.82,46.62,46.62,0,0,1-15.23,8.47,60.63,60.63,0,0,1-19.92,3.09q-16.49,0-29.2-6.3a70.16,70.16,0,0,1-21.64-16.37Z"
          transform="translate(-22 -11.46)"/>
    <path class="a"
          d="M1258.46,719.5a56.49,56.49,0,0,1-25.19-5.61A57.25,57.25,0,0,1,1213.58,698a75.69,75.69,0,0,1-12.82-24.85,107.48,107.48,0,0,1-4.58-32.4,105.26,105.26,0,0,1,4.58-32.17,74.72,74.72,0,0,1,12.82-24.5,55.45,55.45,0,0,1,19.69-15.57,61.11,61.11,0,0,1,50.15,0A55.48,55.48,0,0,1,1303.12,584a74.78,74.78,0,0,1,12.82,24.5,105.36,105.36,0,0,1,4.58,32.17,107.58,107.58,0,0,1-4.58,32.4A75.75,75.75,0,0,1,1303.12,698a57.28,57.28,0,0,1-19.69,15.92A56,56,0,0,1,1258.46,719.5Zm0-9.62A44.16,44.16,0,0,0,1279.3,705a47.67,47.67,0,0,0,16.14-14,67.07,67.07,0,0,0,10.42-21.75,103,103,0,0,0,3.66-28.51,100.84,100.84,0,0,0-3.66-28.17,64.49,64.49,0,0,0-10.42-21.41,47.5,47.5,0,0,0-16.14-13.63,45,45,0,0,0-20.84-4.81,45.72,45.72,0,0,0-21,4.81,47.11,47.11,0,0,0-16.26,13.63,64.35,64.35,0,0,0-10.42,21.41,100.69,100.69,0,0,0-3.66,28.17,102.82,102.82,0,0,0,3.66,28.51A66.92,66.92,0,0,0,1221.25,691a47.26,47.26,0,0,0,16.26,14A44.81,44.81,0,0,0,1258.46,709.88Z"
          transform="translate(-22 -11.46)"/>
    <path class="a" d="M1478.76,565.84H1561V575h-71.68v60h60.46v9.16h-60.46v72.59h-10.53Z"
          transform="translate(-22 -11.46)"/>
    <path class="a" d="M1743.71,575h-48.09v-9.16H1802.1V575h-47.86V716.75h-10.53Z" transform="translate(-22 -11.46)"/>
    <path class="a"
          d="M1938.59,565.84h11.22l18.78,88.85q2.75,12.37,5.38,24.62t5.15,24.62h.92q2.52-12.37,5.5-24.62t6-24.62l23.82-88.85h10.53l23.82,88.85q3,12.37,6,24.62t6,24.62h.92q2.52-12.37,5-24.62t5-24.62l18.78-88.85h10.53L2068,716.75h-11.68l-27.48-103.51q-2.06-8.93-4-17.06t-4-17.06h-.92q-1.84,8.93-4,17.06t-4.24,17.06l-27,103.51h-11.68Z"
          transform="translate(-22 -11.46)"/>
    <path class="a"
          d="M2321.93,665h-59.77l-17.63,51.75h-10.76l53.36-150.91h10.53l53.13,150.91h-11.22Zm-3-8.93-9.62-28.17q-4.58-13.51-8.7-25.88t-8-26.33h-.92q-3.9,14-8,26.33T2275,627.9l-9.62,28.17Z"
          transform="translate(-22 -11.46)"/>
    <path class="a"
          d="M2581.61,716.75l-40.76-69.39h-32.06v69.39h-10.53V565.84h43.05a88.39,88.39,0,0,1,20.38,2.18,42.81,42.81,0,0,1,15.69,7,32,32,0,0,1,10.08,12.37q3.55,7.56,3.55,18.32,0,18.09-10.42,28.28t-28.28,12.71l41.45,70.07Zm-43.05-78.09q20.15,0,30.8-8.13T2580,605.69q0-16.94-10.65-23.93t-30.8-7h-29.77v63.89Z"
          transform="translate(-22 -11.46)"/>
    <path class="a" d="M2749.93,565.84h82.44V575h-71.91v57h60.46v9.16h-60.46v66.41h74.2v9.16h-84.73Z"
          transform="translate(-22 -11.46)"/>
</svg>